M48
; DRILL file {KiCad 9.0.7} date 2026-08-12T23:28:54-0700
; FORMAT={-:-/ absolute / metric / decimal}
; #@! TF.CreationDate,2026-08-12T23:28:54-07:00
; #@! TF.GenerationSoftware,Kicad,Pcbnew,9.0.7
; #@! TF.FileFunction,MixedPlating,1,4
FMAT,2
METRIC
; #@! TA.AperFunction,Plated,PTH,ComponentDrill
T1C0.200
; #@! TA.AperFunction,Plated,PTH,ViaDrill
T2C0.300
; #@! TA.AperFunction,Plated,PTH,ViaDrill
T3C0.400
; #@! TA.AperFunction,Plated,PTH,ComponentDrill
T4C0.600
; #@! TA.AperFunction,Plated,PTH,ComponentDrill
T5C0.790
; #@! TA.AperFunction,Plated,PTH,ComponentDrill
T6C1.000
; #@! TA.AperFunction,Plated,PTH,ComponentDrill
T7C1.200
; #@! TA.AperFunction,Plated,PTH,ComponentDrill
T8C1.372
; #@! TA.AperFunction,Plated,PTH,ComponentDrill
T9C1.499
; #@! TA.AperFunction,Plated,PTH,ComponentDrill
T10C2.000
; #@! TA.AperFunction,NonPlated,NPTH,ComponentDrill
T11C0.650
; #@! TA.AperFunction,NonPlated,NPTH,ComponentDrill
T12C2.438
; #@! TA.AperFunction,NonPlated,NPTH,ComponentDrill
T13C4.000
%
G90
G05
T1
X99.259Y-66.098
X99.259Y-67.498
X99.959Y-65.398
X99.959Y-66.798
X99.959Y-68.198
X100.659Y-66.098
X100.659Y-67.498
X101.359Y-65.398
X101.359Y-66.798
X101.359Y-68.198
X102.059Y-66.098
X102.059Y-67.498
T2
X69.058Y-94.234
X69.638Y-94.894
X85.954Y-102.526
X88.189Y-62.179
X88.24Y-60.096
X88.24Y-61.112
X89.205Y-98.349
X89.408Y-99.822
X89.865Y-90.678
X90.119Y-88.849
X90.881Y-79.096
X90.881Y-81.28
X93.7Y-98.625
X93.725Y-100.375
X101.6Y-80.569
X104.14Y-85.293
X106.172Y-94.793
X106.223Y-95.91
X106.324Y-99.416
X106.426Y-86.462
X107.391Y-88.646
X107.594Y-95.961
X108.442Y-96.993
X108.458Y-88.646
X109.525Y-88.646
X109.626Y-85.344
X109.931Y-82.855
X110.846Y-80.213
X111.201Y-101.092
X111.404Y-104.902
X111.506Y-106.985
X111.811Y-80.264
X112.217Y-65.024
X112.268Y-63.805
X112.319Y-61.976
X112.37Y-60.909
X113.233Y-77.978
X113.792Y-87.173
X114.097Y-102.768
X114.148Y-74.117
X114.198Y-73.101
X114.3Y-77.876
X116.924Y-68.953
X117.094Y-76.505
X117.145Y-77.572
X117.5Y-85.446
X119.329Y-85.801
X119.482Y-89.967
X119.532Y-70.002
X119.583Y-91.186
X119.736Y-67.361
X121.006Y-100.889
X121.107Y-99.771
X121.158Y-98.755
X121.92Y-93.269
X121.971Y-96.571
X122.049Y-95.683
X122.733Y-69.901
X123.088Y-64.872
X123.175Y-63.18
X123.495Y-81.28
X123.808Y-65.829
X125.425Y-92.354
X125.832Y-97.993
X125.882Y-101.092
X125.933Y-100.228
X125.933Y-101.905
X127.0Y-97.79
X127.66Y-65.126
X127.762Y-97.79
X128.016Y-63.398
X128.422Y-77.724
X128.575Y-97.79
X129.845Y-76.251
X131.013Y-77.724
X131.215Y-93.42
X132.994Y-96.876
X133.096Y-73.254
X133.655Y-76.556
X134.214Y-72.339
X134.468Y-102.006
X134.468Y-102.87
X134.97Y-80.772
X135.433Y-101.905
X135.534Y-102.87
X136.195Y-88.646
X136.5Y-101.905
X136.55Y-85.75
X136.601Y-102.87
X136.855Y-105.664
X140.208Y-65.989
X140.208Y-68.021
X145.593Y-83.82
X145.593Y-88.595
X146.812Y-83.871
X146.812Y-88.595
X148.082Y-88.595
X148.133Y-63.144
X148.184Y-83.82
X148.387Y-89.408
X148.996Y-87.528
X149.047Y-106.324
X149.352Y-63.144
X150.571Y-63.144
X151.689Y-74.168
X151.689Y-75.032
X153.67Y-66.345
X153.67Y-67.513
X153.67Y-68.682
X154.432Y-83.668
X154.483Y-82.55
X154.94Y-66.294
X154.94Y-67.462
X154.94Y-68.631
X155.55Y-82.55
X155.55Y-83.668
X156.566Y-82.55
X156.616Y-83.668
X159.41Y-74.168
X159.41Y-74.93
X159.41Y-75.794
X162.865Y-73.66
X163.576Y-83.922
X164.897Y-64.516
X168.453Y-78.537
X169.367Y-74.574
X169.367Y-79.604
X169.621Y-95.86
X171.602Y-79.451
X173.736Y-108.153
X174.295Y-87.376
X174.346Y-90.882
X174.904Y-89.002
X176.327Y-87.782
X176.428Y-79.299
X176.53Y-84.43
X177.292Y-76.911
X177.444Y-101.092
X179.121Y-95.098
X179.275Y-86.311
X179.984Y-67.412
X181.661Y-121.006
X183.286Y-66.802
X183.54Y-97.587
X185.014Y-102.159
X185.064Y-103.124
X185.064Y-104.191
X186.131Y-102.159
X186.131Y-103.124
X186.182Y-104.242
X186.588Y-86.665
X186.639Y-87.732
X187.757Y-86.665
X187.757Y-87.732
X188.214Y-62.382
X188.265Y-63.398
X188.874Y-86.614
X188.925Y-87.732
X189.332Y-62.382
X189.484Y-63.5
X190.5Y-62.382
X190.551Y-63.449
X191.719Y-102.006
X191.77Y-65.176
X195.123Y-67.208
X195.123Y-68.174
X195.123Y-69.19
X196.088Y-69.19
X196.139Y-68.174
X196.19Y-67.158
T3
X86.004Y-121.564
X87.224Y-121.564
X88.697Y-121.564
X89.713Y-83.312
X89.764Y-127.914
X90.932Y-80.162
X92.304Y-135.179
X93.269Y-129.896
X93.472Y-135.179
X93.726Y-116.688
X94.488Y-135.128
X94.844Y-116.637
X94.844Y-121.514
X96.063Y-116.637
X98.857Y-79.959
X107.29Y-84.531
X111.404Y-105.918
X112.268Y-59.588
X112.878Y-86.106
X115.214Y-73.152
X116.18Y-76.505
X116.942Y-67.208
X117.602Y-67.869
X118.262Y-68.478
X118.415Y-88.697
X120.701Y-74.676
X123.19Y-74.828
X123.444Y-67.818
X123.546Y-61.265
X126.086Y-82.144
X126.746Y-74.828
X128.067Y-72.695
X132.537Y-77.724
X135.534Y-104.546
X135.992Y-70.002
X140.157Y-66.904
X140.919Y-109.22
X154.275Y-73.775
X154.475Y-80.05
X157.785Y-108.966
X158.09Y-106.629
X159.156Y-106.68
X167.742Y-108.753
X167.843Y-109.982
X167.945Y-75.59
X169.062Y-109.88
X170.383Y-108.814
X170.383Y-109.88
X171.15Y-83.25
X171.175Y-84.125
X171.175Y-84.9
X172.568Y-71.222
X172.669Y-72.593
X172.669Y-73.457
X173.05Y-95.283
X173.175Y-96.5
X173.685Y-72.542
X173.725Y-82.65
X174.525Y-81.825
X174.55Y-82.6
X176.378Y-73.508
X176.53Y-82.906
X177.825Y-71.577
X178.359Y-84.734
X179.883Y-77.165
X180.594Y-98.958
X187.425Y-99.975
X198.323Y-100.787
X198.725Y-99.975
X199.847Y-97.892
T5
X92.198Y-83.29
X92.198Y-85.83
X92.198Y-88.37
X92.198Y-90.91
X92.198Y-93.45
X92.198Y-95.99
X92.198Y-98.53
X92.198Y-101.07
X92.198Y-103.61
X92.198Y-106.15
X99.978Y-83.29
X99.978Y-85.83
X99.978Y-88.37
X99.978Y-90.91
X99.978Y-93.45
X99.978Y-95.99
X99.978Y-98.53
X99.978Y-101.07
X99.978Y-103.61
X99.978Y-106.15
T6
X71.116Y-87.252
X71.116Y-89.792
X71.116Y-92.332
X71.116Y-94.872
X71.116Y-97.412
X71.116Y-99.952
X86.356Y-87.252
X86.356Y-89.792
X86.356Y-92.332
X86.356Y-94.872
X86.356Y-97.412
X86.356Y-99.952
T7
X114.727Y-62.894
X117.267Y-62.894
X119.807Y-62.894
T8
X87.325Y-125.425
X87.325Y-127.965
X87.325Y-130.505
T9
X119.63Y-105.715
X119.63Y-108.215
X123.13Y-105.715
X123.13Y-108.215
X128.93Y-105.715
X128.93Y-108.215
X132.43Y-105.715
X132.43Y-108.215
X141.971Y-93.98
X141.971Y-97.48
X141.971Y-103.28
X141.971Y-106.78
X144.471Y-93.98
X144.471Y-97.48
X144.471Y-103.28
X144.471Y-106.78
X151.978Y-93.726
X151.978Y-97.226
X151.978Y-103.026
X151.978Y-106.526
X154.478Y-93.726
X154.478Y-97.226
X154.478Y-103.026
X154.478Y-106.526
X162.011Y-93.782
X162.011Y-97.282
X162.011Y-103.082
X162.011Y-106.582
X164.511Y-93.782
X164.511Y-97.282
X164.511Y-103.082
X164.511Y-106.582
X189.443Y-68.072
X189.443Y-71.572
X189.443Y-77.372
X189.443Y-80.872
X191.943Y-68.072
X191.943Y-71.572
X191.943Y-77.372
X191.943Y-80.872
X198.724Y-67.924
X198.724Y-71.424
X198.724Y-77.224
X198.724Y-80.724
X201.224Y-67.924
X201.224Y-71.424
X201.224Y-77.224
X201.224Y-80.724
T10
X106.578Y-113.894
X114.078Y-126.394
X121.578Y-113.894
X129.078Y-126.394
X139.104Y-47.727
X142.702Y-114.094
X146.604Y-60.227
X150.202Y-126.594
X154.104Y-47.727
X157.702Y-114.094
X161.604Y-60.227
X165.202Y-126.594
X175.159Y-47.727
X177.938Y-114.148
X182.659Y-60.227
X185.438Y-126.648
X190.16Y-47.727
X192.938Y-114.148
X197.66Y-60.227
X200.438Y-126.648
T11
X126.686Y-61.677
X126.686Y-67.457
T12
X126.03Y-106.967
X143.219Y-100.38
X153.226Y-100.126
X163.259Y-100.182
X190.695Y-74.472
X199.976Y-74.324
T13
X75.133Y-128.168
T4
X125.606Y-60.247G85X126.706Y-60.247
G05
X125.606Y-68.887G85X126.706Y-68.887
G05
X130.036Y-60.247G85X130.636Y-60.247
G05
X130.036Y-68.887G85X130.636Y-68.887
G05
M30
