%TF.GenerationSoftware,KiCad,Pcbnew,9.0.7*%
%TF.CreationDate,2026-08-12T23:28:26-07:00*%
%TF.ProjectId,Power-distribution-board,506f7765-722d-4646-9973-747269627574,rev?*%
%TF.SameCoordinates,Original*%
%TF.FileFunction,Soldermask,Bot*%
%TF.FilePolarity,Negative*%
%FSLAX46Y46*%
G04 Gerber Fmt 4.6, Leading zero omitted, Abs format (unit mm)*
G04 Created by KiCad (PCBNEW 9.0.7) date 2026-08-12 23:28:26*
%MOMM*%
%LPD*%
G01*
G04 APERTURE LIST*
G04 Aperture macros list*
%AMRoundRect*
0 Rectangle with rounded corners*
0 $1 Rounding radius*
0 $2 $3 $4 $5 $6 $7 $8 $9 X,Y pos of 4 corners*
0 Add a 4 corners polygon primitive as box body*
4,1,4,$2,$3,$4,$5,$6,$7,$8,$9,$2,$3,0*
0 Add four circle primitives for the rounded corners*
1,1,$1+$1,$2,$3*
1,1,$1+$1,$4,$5*
1,1,$1+$1,$6,$7*
1,1,$1+$1,$8,$9*
0 Add four rect primitives between the rounded corners*
20,1,$1+$1,$2,$3,$4,$5,0*
20,1,$1+$1,$4,$5,$6,$7,0*
20,1,$1+$1,$6,$7,$8,$9,0*
20,1,$1+$1,$8,$9,$2,$3,0*%
G04 Aperture macros list end*
%ADD10C,0.650000*%
%ADD11O,2.100000X1.000000*%
%ADD12O,1.600000X1.000000*%
%ADD13RoundRect,0.102000X-0.595000X-0.595000X0.595000X-0.595000X0.595000X0.595000X-0.595000X0.595000X0*%
%ADD14C,1.394000*%
%ADD15R,1.500000X1.500000*%
%ADD16C,1.500000*%
%ADD17C,2.006600*%
%ADD18C,2.700000*%
%ADD19C,4.000000*%
%ADD20RoundRect,0.250000X0.750000X0.750000X-0.750000X0.750000X-0.750000X-0.750000X0.750000X-0.750000X0*%
%ADD21C,2.000000*%
%ADD22R,1.879600X1.879600*%
%ADD23C,1.879600*%
G04 APERTURE END LIST*
D10*
%TO.C,J9*%
X126686000Y-67456800D03*
X126686000Y-61676800D03*
D11*
X126156000Y-68886800D03*
D12*
X130336000Y-68886800D03*
D11*
X126156000Y-60246800D03*
D12*
X130336000Y-60246800D03*
%TD*%
D13*
%TO.C,U5*%
X92197601Y-83289800D03*
D14*
X92197601Y-85829800D03*
X92197601Y-88369800D03*
X92197601Y-90909800D03*
X92197601Y-93449800D03*
X92197601Y-95989800D03*
X92197601Y-98529800D03*
X92197601Y-101069800D03*
X92197601Y-103609800D03*
X92197601Y-106149800D03*
X99977601Y-106149800D03*
X99977601Y-103609800D03*
X99977601Y-101069800D03*
X99977601Y-98529800D03*
X99977601Y-95989800D03*
X99977601Y-93449800D03*
X99977601Y-90909800D03*
X99977601Y-88369800D03*
X99977601Y-85829800D03*
X99977601Y-83289800D03*
%TD*%
D15*
%TO.C,U6*%
X86355601Y-99952200D03*
D16*
X86355601Y-97412200D03*
X86355601Y-94872200D03*
X86355601Y-92332200D03*
X86355601Y-89792200D03*
X86355601Y-87252200D03*
X71115601Y-87252200D03*
X71115601Y-89792200D03*
X71115601Y-92332200D03*
X71115601Y-94872200D03*
X71115601Y-97412200D03*
X71115601Y-99952200D03*
%TD*%
D17*
%TO.C,J3*%
X191943401Y-68071598D03*
X189443401Y-68071598D03*
X191943401Y-71571599D03*
X189443401Y-71571599D03*
X191943401Y-77371600D03*
X189443401Y-77371600D03*
X191943401Y-80871603D03*
X189443401Y-80871603D03*
%TD*%
D18*
%TO.C,J10*%
X142701599Y-114093600D03*
X150201599Y-126593600D03*
X157701600Y-114093600D03*
X165201600Y-126593600D03*
%TD*%
D19*
%TO.C,REF\u002A\u002A*%
X75133200Y-128168400D03*
%TD*%
D18*
%TO.C,J13*%
X177938399Y-114147600D03*
X185438399Y-126647600D03*
X192938400Y-114147600D03*
X200438400Y-126647600D03*
%TD*%
D20*
%TO.C,J7*%
X119807401Y-62893600D03*
D21*
X117267401Y-62893600D03*
X114727401Y-62893600D03*
%TD*%
D22*
%TO.C,U2*%
X87325200Y-125425200D03*
D23*
X87325200Y-127965200D03*
X87325200Y-130505200D03*
%TD*%
D17*
%TO.C,J5*%
X141970801Y-106779601D03*
X144470801Y-106779601D03*
X141970801Y-103279600D03*
X144470801Y-103279600D03*
X141970801Y-97479599D03*
X144470801Y-97479599D03*
X141970801Y-93979596D03*
X144470801Y-93979596D03*
%TD*%
%TO.C,J6*%
X151978401Y-106525601D03*
X154478401Y-106525601D03*
X151978401Y-103025600D03*
X154478401Y-103025600D03*
X151978401Y-97225599D03*
X154478401Y-97225599D03*
X151978401Y-93725596D03*
X154478401Y-93725596D03*
%TD*%
%TO.C,J1*%
X162011401Y-106581600D03*
X164511401Y-106581600D03*
X162011401Y-103081599D03*
X164511401Y-103081599D03*
X162011401Y-97281598D03*
X164511401Y-97281598D03*
X162011401Y-93781595D03*
X164511401Y-93781595D03*
%TD*%
%TO.C,J2*%
X201224053Y-67923597D03*
X198724053Y-67923597D03*
X201224053Y-71423598D03*
X198724053Y-71423598D03*
X201224053Y-77223599D03*
X198724053Y-77223599D03*
X201224053Y-80723602D03*
X198724053Y-80723602D03*
%TD*%
%TO.C,J4*%
X132430401Y-108214800D03*
X132430401Y-105714800D03*
X128930400Y-108214800D03*
X128930400Y-105714800D03*
X123130399Y-108214800D03*
X123130399Y-105714800D03*
X119630396Y-108214800D03*
X119630396Y-105714800D03*
%TD*%
D18*
%TO.C,J12*%
X161604402Y-60226600D03*
X154104402Y-47726600D03*
X146604401Y-60226600D03*
X139104401Y-47726600D03*
%TD*%
%TO.C,J15*%
X106578400Y-113893600D03*
X114078400Y-126393600D03*
X121578401Y-113893600D03*
X129078401Y-126393600D03*
%TD*%
%TO.C,J16*%
X197659501Y-60226600D03*
X190159501Y-47726600D03*
X182659500Y-60226600D03*
X175159500Y-47726600D03*
%TD*%
M02*
